<svg width="53" height="38" viewBox="0 0 53 38" fill="none" xmlns="http://www.w3.org/2000/svg">
<path fill-rule="evenodd" clip-rule="evenodd" d="M20.5756 3.27833C26.7221 0.0210306 33.3552 -0.678277 38.7599 0.604171C51.0956 3.53137 52.0709 12.7926 45.4953 22.3782C42.4922 26.7546 38.0387 30.9666 32.6755 33.6212C23.8847 37.97 15.4389 38.2184 9.90771 34.8634C4.3535 31.4945 3.01239 25.8529 4.99415 19.8524C7.06792 13.5701 12.7394 7.15558 20.5756 3.27833Z" fill="#ED1C24"/>
<path d="M39.9697 10.3508L39.9651 10.3646C39.9306 10.7004 39.9387 11.0512 39.987 11.4043C40.0399 11.792 40.1434 12.1911 40.2929 12.5902C40.5011 13.1492 40.7818 13.6564 41.1211 14.0762C41.4282 14.4546 41.7824 14.7663 42.1758 14.9826C42.6796 15.1953 43.1396 15.2942 43.5238 15.2862C43.8389 15.2793 44.0885 15.2011 44.245 15.055C44.3623 14.9457 44.4382 14.7732 44.4715 14.5351C44.5175 14.2119 44.4842 13.7898 44.3749 13.2676C44.3462 13.1296 44.3128 12.9962 44.276 12.8674C44.2392 12.7432 44.1955 12.6109 44.1449 12.474C43.8907 11.7943 43.5284 11.1766 43.0798 10.7039C42.6911 10.2956 42.239 9.99538 41.7364 9.86196C41.2085 9.72164 40.7611 9.70784 40.4402 9.82746C40.2274 9.90682 40.0675 10.0655 39.9812 10.3071L39.9697 10.3508ZM39.7328 2.05571C42.3483 1.0792 44.9535 1.30234 47.163 2.39041C49.4576 3.52218 51.3139 5.58905 52.2939 8.21146C52.8425 9.67908 53.0668 11.1996 52.9829 12.6707C52.9 14.1395 52.5055 15.5599 51.8166 16.8263C51.789 16.8849 51.7453 16.9724 51.6832 17.0897C51.6256 17.1978 51.5739 17.2875 51.5313 17.3588C50.464 19.1082 49.3747 20.355 48.2798 21.2683C47.1699 22.1953 46.0668 22.7716 44.9822 23.1764C42.3081 24.1759 39.6626 23.9574 37.4256 22.8739C35.0792 21.7387 33.1929 19.6511 32.2118 17.0241C31.6747 15.5864 31.4308 14.1521 31.4757 12.7558C31.5205 11.3457 31.8598 9.98618 32.489 8.71178C32.9583 7.76404 33.7105 6.68057 34.6789 5.63966C35.5335 4.72412 36.5618 3.83043 37.7188 3.08281L37.7315 3.07476C38.0317 2.87463 38.3503 2.6883 38.685 2.51808C39.0243 2.3444 39.374 2.19028 39.7328 2.05571Z" fill="white"/>
<path d="M27.4777 6.88988L31.9404 5.22212C32.3441 5.07145 32.7938 5.27618 32.9445 5.67989C32.9525 5.70174 32.9594 5.7236 32.9663 5.74545L39.3337 22.7232C39.3855 22.8152 39.42 22.9199 39.4292 23.0326C39.451 23.2719 39.3625 23.495 39.2061 23.6526L37.1219 25.7413C37.0345 25.8287 36.9321 25.892 36.8217 25.9288L33.14 27.286C32.8985 27.3757 32.6397 27.3366 32.4407 27.2043L32.4396 27.2066L28.2702 24.4404L29.0511 26.5395C29.1236 26.6591 29.1639 26.8006 29.1616 26.9501C29.1581 27.1629 29.0707 27.3538 28.9304 27.4919L26.8416 29.5702C26.76 29.6507 26.6657 29.7094 26.5656 29.7474V29.7485L22.0627 31.4312C21.6589 31.5819 21.2092 31.3772 21.0586 30.9734L14.6486 13.8197C14.5301 13.5022 14.6314 13.156 14.8775 12.9502L16.9053 10.9132C16.9927 10.8258 17.0962 10.7625 17.2055 10.7257L21.131 9.28225C21.3714 9.19368 21.6279 9.23164 21.8269 9.36161L21.828 9.36046L25.6478 11.8552L24.9473 9.97695C24.838 9.68366 24.9174 9.36506 25.1256 9.15573L27.2005 7.07161C27.2822 6.98994 27.3776 6.93013 27.4788 6.89218L27.4777 6.88988Z" fill="white"/>
<path d="M12.2241 35.0127C10.4689 35.2013 8.93001 34.854 7.61076 34.0672C5.82798 33.0033 4.48573 31.1538 3.58974 28.7557L0.0494914 19.2806C-0.068977 18.9631 0.0322386 18.6169 0.278377 18.4099L2.30614 16.3741C2.3878 16.2924 2.48212 16.2326 2.58333 16.1946V16.1923L7.08168 14.5108C7.48539 14.3601 7.93511 14.5648 8.08578 14.9685L11.7019 24.6473C11.9147 25.2143 12.2138 25.7308 12.6152 26.0781C12.9234 26.3461 13.303 26.5186 13.7654 26.537C13.8608 26.5416 13.9666 26.5428 14.0483 26.5301C14.0495 26.3542 14.0322 26.1759 14.0023 25.9976C13.9563 25.7319 13.8769 25.457 13.7746 25.1821L10.1573 15.5045C10.0388 15.1859 10.1411 14.8397 10.3873 14.6327L12.3483 12.667C12.4335 12.5566 12.5508 12.4681 12.6911 12.4152L17.1894 10.7336C17.5931 10.5829 18.0429 10.7877 18.1935 11.1914L21.7775 20.7827C22.3307 22.2641 22.6045 23.6731 22.5872 24.9923C22.57 26.3289 22.2548 27.563 21.6314 28.6752C21.1437 29.5447 20.1902 30.4672 19.2448 31.3827C19.0309 31.5898 18.8169 31.7956 18.6387 31.9728L18.6237 31.9877C18.2695 32.3638 17.8703 32.7135 17.4241 33.0321C15.892 34.1282 14.0932 34.8126 12.2241 35.0127Z" fill="white"/>
<path fill-rule="evenodd" clip-rule="evenodd" d="M27.7503 7.62137L32.2141 5.95361L38.6459 23.1051L38.6551 23.1039L36.5721 25.1926L32.8709 26.5567L26.7059 22.4667L28.3679 26.9328L28.353 26.9386H28.3829L26.293 29.017L21.7889 30.6997L15.3801 13.5471L17.455 11.4618L21.4002 10.0114L27.2028 13.8001L25.6754 9.70549L27.7503 7.62137Z" fill="black"/>
<path fill-rule="evenodd" clip-rule="evenodd" d="M40.0066 2.78721C44.9237 0.950381 49.7832 3.72346 51.5625 8.48519C52.5884 11.2318 52.3987 14.1636 51.107 16.5008C51.0403 16.648 50.9598 16.7987 50.8655 16.9539C48.8239 20.2998 46.7386 21.6869 44.7097 22.4449C39.6455 24.3381 34.717 21.4983 32.9434 16.7504C31.9347 14.0521 32.0302 11.3997 33.1884 9.05683C34.0096 7.39137 35.8028 5.25089 38.1399 3.73956L38.1411 3.73841C38.7035 3.3623 39.3257 3.0414 40.0066 2.78721ZM39.1992 10.2082C39.2061 10.1817 39.2142 10.1553 39.2222 10.1288C39.5489 9.06488 40.6013 8.75549 41.9378 9.11089C43.2916 9.46975 44.3221 10.72 44.8753 12.2003C44.9869 12.4993 45.0755 12.803 45.1387 13.1066C45.3918 14.3212 45.2802 15.1539 44.7741 15.6255C44.1818 16.1764 43.0926 16.2224 41.8469 15.6888C40.8198 15.1424 40.0239 14.1004 39.5615 12.8639C39.2314 11.9817 39.0969 11.0593 39.1992 10.2082Z" fill="black"/>
<path fill-rule="evenodd" clip-rule="evenodd" d="M30.9731 16.2615L27.7503 7.62137L32.2142 5.95361L38.6471 23.1074L34.9458 24.4726L24.9956 17.8718L28.368 26.9328L23.865 28.6156L17.4551 11.4618L21.4002 10.0114L30.9731 16.2615Z" fill="black"/>
<path fill-rule="evenodd" clip-rule="evenodd" d="M32.1602 17.7463L28.5142 7.96983L31.8669 6.71729L37.8824 22.7577L35.023 23.8112L23.8031 16.3673L27.6055 26.5843L24.2125 27.8518L18.2201 11.8137L21.3256 10.6716L32.1602 17.7463Z" fill="white"/>
<path fill-rule="evenodd" clip-rule="evenodd" d="M27.0752 26.3417L24.4551 27.3216L18.7513 12.0576L21.2737 11.1306L32.9836 18.7769L29.0443 8.21141L31.6253 7.24756L37.3509 22.5139L35.077 23.3523L22.9736 15.323L27.0752 26.3417Z" fill="#F8DA27"/>
<path fill-rule="evenodd" clip-rule="evenodd" d="M40.0066 2.78721C44.9236 0.950381 49.7831 3.72346 51.5624 8.48519C53.336 13.232 51.4773 18.532 46.5741 20.3642C41.672 22.1953 36.7918 19.4142 35.0183 14.6662C33.2389 9.90566 35.0896 4.62405 40.0066 2.78721ZM41.6306 7.13373C39.152 8.05963 38.7126 10.5912 39.5615 12.8639C40.4126 15.1413 42.3978 16.7619 44.881 15.8337C47.3666 14.9055 47.7921 12.382 46.9422 10.1058C46.0933 7.83534 44.1093 6.20669 41.6306 7.13373Z" fill="black"/>
<path fill-rule="evenodd" clip-rule="evenodd" d="M40.2136 3.34257C44.8201 1.6219 49.3403 4.23511 51.0057 8.69204C52.6666 13.1363 50.9574 18.0924 46.3671 19.8074C41.7755 21.5223 37.2346 18.9022 35.5749 14.459C33.9095 10.0009 35.6083 5.06438 40.2136 3.34257ZM41.4224 6.57687C38.6264 7.62123 38.0398 10.4886 39.0059 13.0719C39.9721 15.6587 42.2874 17.4368 45.0892 16.3902C47.8922 15.3424 48.4638 12.483 47.4977 9.89858C46.5338 7.31758 44.2197 5.53136 41.4224 6.57687Z" fill="white"/>
<path fill-rule="evenodd" clip-rule="evenodd" d="M41.2788 6.19053C44.1922 5.10247 46.7916 6.83118 47.8842 9.75378C48.9769 12.6764 48.158 15.6829 45.2331 16.7768C42.3105 17.8683 39.7111 16.1396 38.6196 13.2158C37.5269 10.2932 38.3642 7.27975 41.2788 6.19053ZM40.3586 3.72916C44.6695 2.11891 49.0011 4.50322 50.6205 8.83594C52.2388 13.1698 50.5066 17.8211 46.2222 19.421C41.9378 21.0221 37.5798 18.6481 35.9603 14.3142C34.342 9.98152 36.0478 5.3394 40.3586 3.72916Z" fill="#F8DA27"/>
<path fill-rule="evenodd" clip-rule="evenodd" d="M11.7387 34.2722C8.19275 34.4723 5.70952 32.1984 4.32125 28.4834L0.781006 19.0082L2.85593 16.9241L7.35542 15.2425L10.9716 24.9201C11.4385 26.1692 12.3081 27.2561 13.7343 27.3148C14.1392 27.3309 14.7039 27.2987 14.8201 26.7454C14.8603 26.1404 14.7292 25.5078 14.5049 24.9098L10.8888 15.231L12.9648 13.1492L12.9637 13.1469L12.9706 13.1434L12.9729 13.1411L12.9763 13.1423L17.4632 11.4653L21.0471 21.0567C22.0823 23.8286 22.0765 26.2865 20.9517 28.2947C20.4214 29.2413 19.1689 30.3547 18.0935 31.4186L18.0889 31.4221C16.4982 33.1324 14.0357 34.1422 11.7387 34.2722Z" fill="black"/>
<path fill-rule="evenodd" clip-rule="evenodd" d="M17.6553 31.1334L17.6737 31.1851L16.7317 31.5371C16.7041 31.5474 16.6765 31.5566 16.6638 31.5612C16.6328 31.5727 16.6017 31.5854 16.5707 31.5969L15.6287 31.9488L15.608 31.8948C11.0947 33.0818 8.00875 30.7124 6.39735 26.3992L2.85596 16.9241L7.35545 15.2425L10.9716 24.9201C11.4386 26.1692 12.3081 27.2561 13.7343 27.3148C14.1599 27.332 14.5855 27.2527 14.9834 27.1043C15.3894 26.9525 15.7701 26.7282 16.0841 26.4291C17.1113 25.4492 17.0434 24.0621 16.581 22.8245L12.9637 13.1469L17.4632 11.4653L21.0472 21.0567C22.677 25.4181 21.8707 29.0849 17.6553 31.1334Z" fill="black"/>
<path fill-rule="evenodd" clip-rule="evenodd" d="M16.9053 30.8242L16.9099 30.8368L16.5235 30.9806C16.4959 30.9909 16.4683 31.0013 16.4499 31.0082C16.4211 31.0185 16.3923 31.03 16.3624 31.0404L15.9771 31.1853L15.9714 31.1715C11.5098 32.5897 8.53549 30.4262 6.95284 26.1913L3.61963 17.2716L7.0069 16.0064L10.4149 25.1285C10.9693 26.6122 12.0355 27.8395 13.709 27.9085C14.2139 27.9292 14.7188 27.8372 15.1916 27.6612C15.6723 27.4806 16.1221 27.2138 16.4936 26.8584C17.7001 25.7082 17.6874 24.091 17.1365 22.6177L13.7274 13.4944L17.1147 12.2292L20.4904 21.2639C22.088 25.5403 21.2392 28.9689 16.9053 30.8242Z" fill="white"/>
<path fill-rule="evenodd" clip-rule="evenodd" d="M4.151 17.5141L6.76535 16.5365L10.0296 25.2732C11.1084 28.1602 13.403 28.7502 15.3353 28.0463C17.2561 27.3102 18.6283 25.3675 17.523 22.4725L14.2588 13.7369L16.8731 12.7593L20.104 21.4086C21.3945 24.8603 21.4117 28.634 16.3785 30.5928L16.3797 30.5951C16.3532 30.6043 16.3268 30.6135 16.3015 30.6227C16.2739 30.633 16.2463 30.6445 16.2187 30.6549L16.2175 30.6526C11.2729 32.4193 8.66085 29.5829 7.33929 26.0473L4.151 17.5141Z" fill="#F8DA27"/>
<path fill-rule="evenodd" clip-rule="evenodd" d="M26.347 9.84698L27.9711 8.21143L28.882 10.6556L27.2591 12.29L26.347 9.84698ZM27.5662 13.1112L29.1903 11.4756L29.5353 12.4015L27.9124 14.0359L27.5662 13.1112Z" fill="black"/>
<path fill-rule="evenodd" clip-rule="evenodd" d="M11.5674 15.3702L13.1914 13.7346L14.1035 16.1787L12.4795 17.8131L11.5674 15.3702ZM12.7866 18.6344L14.4106 16.9988L14.7557 17.9247L13.1328 19.558L12.7866 18.6344Z" fill="black"/>
<path fill-rule="evenodd" clip-rule="evenodd" d="M3.50696 24.6485L5.13216 23.0129L6.0431 25.4571L4.4202 27.0915L3.50696 24.6485ZM4.72615 27.9127L6.35135 26.2771L6.3525 26.2794L6.39735 26.3991C6.49972 26.674 6.60899 26.9419 6.724 27.2019L5.0804 28.857L4.72615 27.9127Z" fill="black"/>
<path fill-rule="evenodd" clip-rule="evenodd" d="M43.6434 9.33951L45.279 7.6936C45.8771 8.17553 46.3694 8.83688 46.7271 9.59715L45.1076 11.2269C44.7453 10.5127 44.2553 9.84674 43.6434 9.33951ZM45.4504 12.0125L47.0457 10.4057C47.1561 10.7485 47.2366 11.0935 47.286 11.4374L45.7333 13.0005L45.7299 12.9821C45.6608 12.6532 45.5677 12.3288 45.4504 12.0125Z" fill="black"/>
</svg>
